<svg version="1.0" viewBox="0 0 24 24" xmlns="http://www.w3.org/2000/svg"><title>octocat</title><path d="m0 4480v-4480h4480 4480v4480 4480h-4480-4480v-4480zm3955 1894c288-22 714-22 995 0 584 45 811 28 1019-76 99-50 215-154 304-273 143-193 196-373 182-620-37-671-351-990-1070-1089-369-50-1171-56-1600-11-280 29-548 95-730 179-186 86-366 245-454 400-92 163-142 370-143 596-1 252 80 447 273 654 145 155 324 235 579 260 81 7 421-3 645-20zm-2063-2171c39-35 4-76-62-71-55 4-78 32-54 66 19 27 88 31 116 5zm202-112c40-44-31-98-91-69-34 16-43 56-17 75 27 20 88 16 108-6zm-410-191c43-149 45-182 11-215-40-41-102-27-126 28-13 29-11 42 24 162 43 150 46 159 51 154 3-2 20-60 40-129zm533 49c32-27-1-79-51-79-69 0-100 59-46 88 27 13 74 9 97-9zm106-163c39-30 4-86-53-86-33 0-70 26-70 50 0 41 83 66 123 36zm129-163c23-21 23-36-1-57-27-25-88-23-114 2-19 20-19 22-3 46 13 21 24 26 58 26 25 0 49-7 60-17zm153-125c18-8 25-19 25-38 0-45-73-66-118-34-62 43 18 106 93 72zm713-54c12-8 22-24 22-34 0-24-37-50-70-50s-70 26-70 50 37 50 70 50c14 0 36-7 48-16zm-470-40c41-29 24-68-36-80-61-12-109 49-64 82 23 18 73 17 100-2zm230 0c12-8 22-24 22-34 0-24-37-50-70-50s-70 26-70 50 37 50 70 50c14 0 36-7 48-16zm1463-1086c0-2 4-68 8-148 10-169 35-259 102-365 81-129 233-229 394-262 91-18 128-10 146 31 20 43 2 92-55 156-93 104-136 251-136 460v121l53-6c80-10 77-7 77-88 0-295 211-474 580-493 94-5 108-3 138 15 61 39 34 109-61 157-109 56-197 173-225 302-9 40-9 42 14 42 35 0 272-47 409-81 238-60 500-156 644-236 172-95 312-219 368-326 25-47 28-62 28-157 0-100-2-108-33-166-39-72-150-184-247-249-85-57-281-153-390-191-44-15-82-32-83-36-2-4-7-6-12-3-4 3-34-4-66-15-33-12-86-28-119-36-33-9-65-20-71-25s-13-6-16-3-41-4-84-15c-93-23-313-64-469-86-302-42-390-47-905-48-522-1-615 4-935 48-254 36-610 112-744 159-24 9-47 13-52 10s-9 0-9 7-3 9-7 6c-3-4-11-3-17 2-6 4-35 16-65 26s-99 37-153 61c-54 23-98 40-98 36s-4-2-8 3c-4 6-41 30-82 55-109 63-166 108-245 191-39 41-71 76-71 79-3 19-17 50-22 50-4 0-9 12-10 28-1 15-6 28-10 29-4 2-5 42-2 90 8 115 36 178 124 270 197 210 587 378 1129 489 156 31 151 32 144-12-19-113-116-243-224-298-79-39-109-88-83-135 18-34 64-44 169-38 364 24 571 202 571 493v72l31 6c17 3 47 6 65 6h34v-115c0-204-44-353-136-455-57-64-75-113-55-156 18-41 55-49 146-31 161 33 313 133 394 262 66 104 92 197 102 360 4 77 8 143 8 148 1 6 120 11 122 5z"/><path d="m3322 5825c-130-40-212-189-212-385 0-442 417-548 525-133 74 283-107 582-313 518z"/><path d="m5575 5831c-51-13-91-39-134-87-131-150-131-459 1-608 163-186 394-67 440 227 40 258-127 511-307 468z"/><path d="m4420 5002c-43-21-62-56-56-101 6-41 29-67 71-81 95-31 167 85 98 159-36 38-70 45-113 23z"/><path d="m4224 4677c-15-41 72-146 144-174 111-42 234-5 300 92 37 55 39 88 5 93-17 3-26-3-32-21-32-84-138-139-223-117-57 15-104 52-128 101-21 40-55 53-66 26z"/></svg>
